<?xml version="1.0" encoding="utf-8"?>
<!-- Generator: Adobe Illustrator 27.0.0, SVG Export Plug-In . SVG Version: 6.00 Build 0)  -->
<svg version="1.1" id="Layer_1" xmlns="http://www.w3.org/2000/svg" xmlns:xlink="http://www.w3.org/1999/xlink" x="0px" y="0px"
	 viewBox="0 0 48 48" style="enable-background:new 0 0 48 48;" xml:space="preserve">
<style type="text/css">
	.st0{fill:#FFFFFF;}
</style>
<path class="st0" d="M39.5,43h-9c-1.4,0-2.5-1.1-2.5-2.5v-9c0-1.1-0.9-2-2-2h-4c-1.1,0-2,0.9-2,2v9c0,1.4-1.1,2.5-2.5,2.5h-9
	C7.1,43,6,41.9,6,40.5V21.4c0-2.3,1.1-4.5,2.9-5.9L23.1,4.3c0.5-0.4,1.3-0.4,1.9,0l14.2,11.2c1.8,1.4,2.9,3.6,2.9,5.9v19.1
	C42,41.9,40.9,43,39.5,43z"/>
</svg>
