<?xml version="1.0" encoding="utf-8"?>
<!-- Generator: Adobe Illustrator 27.0.0, SVG Export Plug-In . SVG Version: 6.00 Build 0)  -->
<svg version="1.1" id="Layer_1" xmlns="http://www.w3.org/2000/svg" xmlns:xlink="http://www.w3.org/1999/xlink" x="0px" y="0px"
	 viewBox="0 0 100 125" style="enable-background:new 0 0 100 125;" xml:space="preserve">
<style type="text/css">
	.st0{fill:#FFFFFF;}
</style>
<path class="st0" d="M83.3,23H45.1c-1.4-4.8-5.8-8.2-10.8-8.2c-5,0-9.4,3.4-10.7,8.2H17c-1.7,0-3,1.3-3,3s1.3,3,3,3h6.6
	c1.3,4.8,5.7,8.2,10.7,8.2c5,0,9.4-3.4,10.8-8.2h38.2c1.7,0,3-1.3,3-3S85,23,83.3,23z M34.3,31.2c-2.9,0-5.2-2.3-5.2-5.2
	s2.3-5.2,5.2-5.2s5.2,2.3,5.2,5.2v0C39.5,28.9,37.2,31.2,34.3,31.2C34.3,31.2,34.3,31.2,34.3,31.2z"/>
<path class="st0" d="M83.3,47h-6.9c-1.3-4.8-5.7-8.2-10.7-8.2c-5,0-9.4,3.4-10.8,8.2H17c-1.7,0-3,1.3-3,3s1.3,3,3,3h37.9
	c1.4,4.8,5.8,8.2,10.8,8.2c5,0,9.4-3.4,10.7-8.2h6.9c1.7,0,3-1.3,3-3S85,47,83.3,47z M65.7,55.2c-2.9,0.1-5.2-2.2-5.3-5.1
	c-0.1-2.9,2.2-5.2,5.1-5.3c2.9-0.1,5.2,2.2,5.3,5.1c0,0,0,0.1,0,0.1C70.8,52.8,68.5,55.1,65.7,55.2z"/>
<path class="st0" d="M83.3,71H53.2c-1.8-5.9-8.1-9.2-14-7.4c-3.5,1.1-6.3,3.9-7.4,7.4H17c-1.7,0-3,1.3-3,3s1.3,3,3,3h14.7
	c1.4,6,7.4,9.7,13.4,8.2c4.1-1,7.3-4.2,8.2-8.2h30c1.7,0,3-1.3,3-3S85,71,83.3,71z M42.5,79.5c-2.9,0-5.2-2.3-5.2-5.2
	c0-2.9,2.3-5.2,5.2-5.2c2.9,0,5.2,2.3,5.2,5.2l0,0C47.7,77.2,45.4,79.5,42.5,79.5z"/>
</svg>
